# File created by Blade
# Date/Time:  Thu Jan 15 19:03:44 2015
#---------------------------------------------------------
:version 1.10
:name HOM
:units
  mass 1.0
  length 1.000000
  angle deg
:documentation
     Acclaim Skeleton File
:root
   axis xyz
   order TX TY TZ RX RY RZ
   position 0.000000 0.000000 0.000000
   orientation 0 0 0
:bonedata
   begin
      id 1
      name Spine_dum
      direction 0.000000 1.000000 0.000000
      length 4.354460
      axis 0.0 0.0 0.0 xyz
   end
   begin
      id 2
      name LeftUpLeg_dum
      direction 1.000000 0.000000 0.000000
      length 4.291077
      axis 0.0 0.0 0.0 xyz
   end
   begin
      id 3
      name RightUpLeg_dum
      direction -1.000000 0.000000 0.000000
      length 4.291077
      axis 0.0 0.0 0.0 xyz
   end
   begin
      id 4
      name Spine
      direction 0.000000 1.000000 0.000000
      length 0.000000
      axis 0.0 0.0 0.0 xyz
      dof rx ry rz
   end
   begin
      id 5
      name Spine_dum1
      direction 0.000000 1.000000 0.000000
      length 16.581769
      axis 0.0 0.0 0.0 xyz
   end
   begin
      id 6
      name Spine_dum2
      direction 0.000000 1.000000 0.000000
      length 12.903700
      axis 0.0 0.0 0.0 xyz
   end
   begin
      id 7
      name Spine_dum3
      direction 0.000000 1.000000 0.000000
      length 12.903700
      axis 0.0 0.0 0.0 xyz
   end
   begin
      id 8
      name Head
      direction 0.000000 1.000000 0.000000
      length 4.527550
      axis 0.0 0.0 0.0 xyz
      dof rx ry rz
   end
   begin
      id 9
      name LeftShoulder
      direction 1.000000 0.000000 0.000000
      length 6.942033
      axis 0.0 0.0 -90.0 xyz
      dof rx ry rz
   end
   begin
      id 10
      name LeftArm
      direction 1.000000 0.000000 0.000000
      length 11.010391
      axis 0.0 0.0 -90.0 xyz
      dof rx ry rz
   end
   begin
      id 11
      name LeftForeArm
      direction 1.000000 0.000000 0.000000
      length 8.054994
      axis 0.0 0.0 -90.0 xyz
      dof rz ry rx
   end
   begin
      id 12
      name LeftHand
      direction 0.000000 0.000000 0.000000
      length 0.000000
      axis 0.0 0.0 -90.0 xyz
      dof rx ry rz
   end
   begin
      id 13
      name LeftHand_dum1
      direction 0.000000 0.000000 0.000000
      length 0.000000
      axis 0.0 0.0 -90.0 xyz
   end
   begin
      id 14
      name LeftHand_dum2
      direction 1.000000 0.000000 0.000000
      length 3.937000
      axis 0.0 0.0 -90.0 xyz
   end
   begin
      id 15
      name LeftHandThumb1
      direction 0.000000 0.000000 1.000000
      length 3.937000
      axis 0.0 0.0 -90.0 xyz
      dof rx ry rz
   end
   begin
      id 16
      name RightShoulder
      direction -1.000000 0.000000 0.000000
      length 6.942033
      axis 0.0 0.0 90.0 xyz
      dof rx ry rz
   end
   begin
      id 17
      name RightArm
      direction -1.000000 0.000000 0.000000
      length 11.010391
      axis 0.0 0.0 90.0 xyz
      dof rx ry rz
   end
   begin
      id 18
      name RightForeArm
      direction -1.000000 0.000000 0.000000
      length 8.054994
      axis 0.0 0.0 90.0 xyz
      dof rz ry rx
   end
   begin
      id 19
      name RightHand
      direction 0.000000 0.000000 0.000000
      length 0.000000
      axis 0.0 0.0 90.0 xyz
      dof rx ry rz
   end
   begin
      id 20
      name RightHand_dum1
      direction 0.000000 0.000000 0.000000
      length 0.000000
      axis 0.0 0.0 90.0 xyz
   end
   begin
      id 21
      name RightHand_dum2
      direction -1.000000 0.000000 0.000000
      length 3.937000
      axis 0.0 0.0 90.0 xyz
   end
   begin
      id 22
      name RightHandThumb1
      direction 0.000000 0.000000 1.000000
      length 3.937000
      axis 0.0 0.0 90.0 xyz
      dof rx ry rz
   end
   begin
      id 23
      name LeftUpLeg
      direction 0.000000 -1.000000 0.000000
      length 17.039958
      axis 0.0 0.0 0.0 xyz
      dof rx ry rz
   end
   begin
      id 24
      name LeftLeg
      direction 0.000000 -1.000000 0.000000
      length 16.939743
      axis 0.0 0.0 0.0 xyz
      dof rx ry rz
   end
   begin
      id 25
      name LeftFoot
      direction 0.000000 -0.258819 0.965926
      length 5.235044
      axis 15.0 0.0 0.0 xyz
      dof rx ry rz
   end
   begin
      id 26
      name LeftToeBase
      direction 0.000000 0.000000 1.000000
      length 2.952750
      axis 0.0 0.0 0.0 xyz
      dof rx ry rz
   end
   begin
      id 27
      name RightUpLeg
      direction 0.000000 -1.000000 0.000000
      length 17.039958
      axis 0.0 0.0 0.0 xyz
      dof rx ry rz
   end
   begin
      id 28
      name RightLeg
      direction 0.000000 -1.000000 0.000000
      length 16.939743
      axis 0.0 0.0 0.0 xyz
      dof rx ry rz
   end
   begin
      id 29
      name RightFoot
      direction 0.000000 -0.258819 0.965926
      length 5.235044
      axis 15.0 0.0 0.0 xyz
      dof rx ry rz
   end
   begin
      id 30
      name RightToeBase
      direction 0.000000 0.000000 1.000000
      length 2.952750
      axis 0.0 0.0 0.0 xyz
      dof rx ry rz
   end
:hierarchy
   begin
      root Spine_dum LeftUpLeg_dum RightUpLeg_dum
      Spine_dum Spine
      LeftUpLeg_dum LeftUpLeg
      RightUpLeg_dum RightUpLeg
      Spine Spine_dum1 Spine_dum2 Spine_dum3
      Spine_dum1 Head
      Spine_dum2 LeftShoulder
      Spine_dum3 RightShoulder
      LeftShoulder LeftArm
      LeftArm LeftForeArm
      LeftForeArm LeftHand
      LeftHand LeftHand_dum1 LeftHand_dum2
      LeftHand_dum1 LeftHandThumb1
      RightShoulder RightArm
      RightArm RightForeArm
      RightForeArm RightHand
      RightHand RightHand_dum1 RightHand_dum2
      RightHand_dum1 RightHandThumb1
      LeftUpLeg LeftLeg
      LeftLeg LeftFoot
      LeftFoot LeftToeBase
      RightUpLeg RightLeg
      RightLeg RightFoot
      RightFoot RightToeBase
   end

# File created by Blade
# Date/Time:  Thu Jan 15 19:03:33 2015
# Frame Rate: 120.000 fps
#------------------------------------------------------
:FULLY-SPECIFIED
:DEGREES
874
root 3.579556 35.714780 -11.843993 -175.105483 -0.770804 -179.755510
Spine -11.384998 12.275442 -2.538094
Head 4.346338 -8.013228 8.553904
LeftShoulder 5.061053 1.353308 12.838533
LeftArm 64.174619 -18.804269 -39.436069
LeftForeArm -0.000000 26.677002 2.193948
LeftHand 3.614299 -0.000000 -2.487865
LeftHandThumb1 -26.253704 33.147579 0.000000
RightShoulder -7.218062 8.644140 -20.430401
RightArm 40.013770 25.401125 50.238312
RightForeArm -0.000000 -44.262537 15.734454
RightHand 1.686125 -0.000000 -9.140485
RightHandThumb1 -24.326973 -32.862282 -0.000000
LeftUpLeg 1.514661 10.802938 -0.122301
LeftLeg -1.471528 -0.000000 0.000000
LeftFoot -17.133796 23.280656 -11.379837
LeftToeBase 19.553905 -0.000000 -0.000000
RightUpLeg 3.359068 -12.847197 0.711358
RightLeg -3.158224 -0.000000 0.000000
RightFoot -16.858955 -17.484456 12.302749
RightToeBase 18.960647 -0.000000 -0.000000
875
root 3.586943 35.714169 -11.843507 -175.187851 -0.686949 -179.742925
Spine -11.443034 12.397904 -2.546540
Head 4.347741 -7.905823 8.577034
LeftShoulder 5.414827 1.049977 12.858122
LeftArm 64.953693 -18.274809 -39.921092
LeftForeArm -0.000000 26.505421 2.222539
LeftHand 3.321371 -0.000000 -2.372256
LeftHandThumb1 -26.253704 33.147579 0.000000
RightShoulder -6.762568 9.185626 -20.372156
RightArm 40.785331 25.059787 51.397048
RightForeArm -0.000000 -43.587150 15.799636
RightHand 1.132464 -0.000000 -9.067979
RightHandThumb1 -24.326973 -32.862282 -0.000000
LeftUpLeg 1.623231 10.863154 -0.088616
LeftLeg -1.498421 -0.000000 0.000000
LeftFoot -17.097366 23.297174 -11.317364
LeftToeBase 19.486779 -0.000000 -0.000000
RightUpLeg 3.433867 -12.774856 0.723528
RightLeg -3.175123 -0.000000 0.000000
RightFoot -16.844344 -17.537449 12.278268
RightToeBase 19.055722 -0.000000 -0.000000
876
root 3.593750 35.712537 -11.841247 -175.254399 -0.586548 -179.736278
Spine -11.509194 12.519572 -2.564007
Head 4.317743 -7.801099 8.583531
LeftShoulder 5.754009 0.828731 12.911948
LeftArm 65.813123 -17.818941 -40.492230
LeftForeArm 0.000000 26.464986 2.194057
LeftHand 3.114817 -0.000000 -2.378487
LeftHandThumb1 -26.253704 33.147579 0.000000
RightShoulder -6.327415 9.674328 -20.304746
RightArm 41.628481 24.692327 52.570805
RightForeArm -0.000000 -42.939662 15.819460
RightHand 0.392636 -0.000000 -9.074190
RightHandThumb1 -24.326973 -32.862282 -0.000000
LeftUpLeg 1.719089 10.952229 -0.067754
LeftLeg -1.542214 -0.000000 0.000000
LeftFoot -17.121557 23.317964 -11.338007
LeftToeBase 19.557073 -0.000000 -0.000000
RightUpLeg 3.481641 -12.699325 0.737181
RightLeg -3.188954 -0.000000 0.000000
RightFoot -16.834594 -17.640185 12.182372
RightToeBase 19.018472 -0.000000 -0.000000
877
root 3.600758 35.711135 -11.839783 -175.332900 -0.484202 -179.719273
Spine -11.568975 12.599233 -2.569875
Head 4.314386 -7.678713 8.612478
LeftShoulder 6.113543 0.599661 12.942440
LeftArm 66.554751 -17.311879 -40.876195
LeftForeArm 0.000000 26.356960 2.237191
LeftHand 2.822394 -0.000000 -2.292260
LeftHandThumb1 -26.253704 33.147579 0.000000
RightShoulder -5.845294 10.129194 -20.183317
RightArm 42.385302 24.176346 53.509176
RightForeArm -0.000000 -42.272192 15.853129
RightHand -0.166389 -0.000000 -8.982921
RightHandThumb1 -24.326973 -32.862282 -0.000000
LeftUpLeg 1.829267 11.017428 -0.033040
LeftLeg -1.578249 -0.000000 0.000000
LeftFoot -17.089395 23.364340 -11.263112
LeftToeBase 19.483521 -0.000000 -0.000000
RightUpLeg 3.542628 -12.624379 0.753426
RightLeg -3.193151 -0.000000 0.000000
RightFoot -16.836441 -17.687307 12.158548
RightToeBase 19.076714 -0.000000 -0.000000
